inDegrees=no
num_controls=7
num_derivatives=13
num_iterations=133
num_multipliers=7
num_parameters=0
num_slacks=7
num_states=26
objective=5.333535
objective_accelerations=0.471955
objective_balance=0.111652
objective_effort=0.343318
objective_height=4.324590
objective_ligament=0.082019
solver_duration=1518.907420
status=Solve_Succeeded
success=true
DataType=double
version=3
OpenSimVersion=4.4-2022-07-23-0e9fedc
endheader
time	/jointset/ground_pelvis/pelvis_tilt/value	/jointset/ground_pelvis/pelvis_tx/value	/jointset/ground_pelvis/pelvis_ty/value	/jointset/hip_l/hip_flexion_l/value	/jointset/hip_l/hip_adduction_l/value	/jointset/hip_l/hip_rotation_l/value	/jointset/back/lumbar_extension/value	/jointset/patellofemoral_l/patellar_flexion_l/value	/jointset/knee_l/knee_flexion_l/value	/jointset/knee_l/knee_adduction_l/value	/jointset/knee_l/knee_rotation_l/value	/jointset/ankle_l/ankle_angle_l/value	/jointset/subtalar_l/subtalar_angle_l/value	/jointset/ground_pelvis/pelvis_tilt/speed	/jointset/ground_pelvis/pelvis_tx/speed	/jointset/ground_pelvis/pelvis_ty/speed	/jointset/hip_l/hip_flexion_l/speed	/jointset/hip_l/hip_adduction_l/speed	/jointset/hip_l/hip_rotation_l/speed	/jointset/back/lumbar_extension/speed	/jointset/patellofemoral_l/patellar_flexion_l/speed	/jointset/knee_l/knee_flexion_l/speed	/jointset/knee_l/knee_adduction_l/speed	/jointset/knee_l/knee_rotation_l/speed	/jointset/ankle_l/ankle_angle_l/speed	/jointset/subtalar_l/subtalar_angle_l/speed	/forceset/tau_hip_flexion_l	/forceset/tau_hip_adduction_l	/forceset/tau_hip_rotation_l	/forceset/tau_knee_flexion_l	/forceset/tau_ankle_angle_l	/forceset/tau_subtalar_angle_l	/forceset/tau_lumbar_extension	lambda_cid13_p0	lambda_cid13_p1	lambda_cid13_p2	lambda_cid13_p3	lambda_cid13_p4	lambda_cid13_p5	lambda_cid14_p0	/jointset/ground_pelvis/pelvis_tilt/accel	/jointset/ground_pelvis/pelvis_tx/accel	/jointset/ground_pelvis/pelvis_ty/accel	/jointset/hip_l/hip_flexion_l/accel	/jointset/hip_l/hip_adduction_l/accel	/jointset/hip_l/hip_rotation_l/accel	/jointset/back/lumbar_extension/accel	/jointset/patellofemoral_l/patellar_flexion_l/accel	/jointset/knee_l/knee_flexion_l/accel	/jointset/knee_l/knee_adduction_l/accel	/jointset/knee_l/knee_rotation_l/accel	/jointset/ankle_l/ankle_angle_l/accel	/jointset/subtalar_l/subtalar_angle_l/accel	gamma_cid13_p0	gamma_cid13_p1	gamma_cid13_p2	gamma_cid13_p3	gamma_cid13_p4	gamma_cid13_p5	gamma_cid14_p0
1.5	-0.3382456019238714	-0.00679693038607593	0.7977741284617472	1.04358612632244	-0.3058592643159569	-0.04633463365143162	-0.3227303923880626	0.6736242810127011	0.6736242810127019	-0.1714630170247317	0.1745277817472823	0.140526759968957	-0.02352084141092206	0.4414846052593788	0.1279563166747374	0.3696734946692369	-1.759358107802313	0.02651301181612762	-0.6059533461382715	0.5837943811255083	-1.711479130183515	-1.711479130183517	0.008633690015565673	-8.050060809401868e-05	-0.4990545739508812	-0.05412342532554124	-0.1924795329372425	0.03196836138411296	-0.0220134348476546	-0.2040206332504963	0.05051790947572468	0.04449054589256588	0.1886383953597297	-22.06889557557459	-19.36258223334001	7.144317905907129	3.759996427298135	-611.2584959862887	-60.15953979696489	-29.19316500514514	0.3761322380540268	0.3480390876904771	-0.2877589443017572	-1.085418786057829	0.5224174359573883	-0.3598610715103077	1.33658300328495	-1.051205797574703	-1.051205797574699	-0.02386605235671776	-0.01787145654654683	-0.329251955591671	0.5062029037344933	2.435100369720064e-07	9.674039283942599e-07	-1.235790794299304e-06	-3.223754408771941e-08	2.697826724435885e-07	6.287434623861095e-07	2.614616622598883e-07
1.51	-0.3338121770268067	-0.005500097172454311	0.8014557598336363	1.025940128000799	-0.305568718129885	-0.05241193975254377	-0.3168267723758333	0.6564591722857211	0.6564591722857163	-0.171379319422541	0.1745273965321962	0.1355202025183976	-0.02403763132072514	0.4451451630979459	0.1313921139928535	0.3665807403233811	-1.769593614738919	0.03160662875706235	-0.6094050845027162	0.5968450674575894	-1.72130074698565	-1.721300746985656	0.008082362208912022	-1.081158550447931e-05	-0.5021813231150157	-0.04922379218995104	-0.1865056500601009	0.03082144443333161	-0.02190247314644974	-0.202637877558115	0.05336030016614356	0.04382677878775197	0.1837543563034779	-21.01804983081479	-19.33479283066747	7.227256189742629	3.47284428056311	-608.0923380184759	-60.4590246369841	-30.15663496426337	0.3527493123733747	0.3386379173475654	-0.3308048055127704	-0.9554095212493353	0.5043443181941311	-0.3222182683868397	1.276628368765145	-0.9113967934587249	-0.911396793459429	-0.07411224904515491	0.01737979022823415	-0.2930257593388605	0.4833165509007112	1.504696817601435e-07	1.19877215695133e-06	-7.930921590754296e-07	5.395692531781316e-08	2.065066925743868e-07	6.370232111433127e-07	2.123366976333007e-07
1.52	-0.3293438002002358	-0.00416944841295648	0.8051043094369095	1.008199216035033	-0.3052269336753983	-0.05852064084719245	-0.3107951821161646	0.6392030959563325	0.639203095956326	-0.1713018043192601	0.1745273063490429	0.1304846497036943	-0.02450513029268654	0.4484749911611313	0.1347194258499798	0.3630571409461086	-1.778340836627021	0.03676066549930102	-0.6122323448461725	0.6093884306134915	-1.729672650664822	-1.729672650664833	0.00739719023324031	-2.149422025474673e-05	-0.5048536467797317	-0.04426523775718329	-0.1805317671829533	0.02967452748255767	-0.02179151144523787	-0.2012551218657332	0.05620269085656469	0.04316301168294735	0.1788703172472295	-19.97379819826082	-19.30841313363199	7.313348971538532	3.188578594205421	-605.041005588554	-60.81190432848021	-31.10040437876266	0.3099862829777129	0.3263419954924929	-0.3739279505851193	-0.7877617763570818	0.5345013962181803	-0.2349654673126193	1.235118368049159	-0.7612631729823653	-0.7612631729823718	-0.05063488616032465	-0.03394578801451915	-0.2383668557079772	0.5179871631700004	9.92917111135047e-08	1.357446672352686e-06	-5.587775122064964e-07	1.041595818347847e-07	1.756763899727777e-07	6.565383399378494e-07	1.887913732886379e-07
1.53	-0.3248438146808023	-0.002806100071354899	0.8087155092154039	0.9903783328781018	-0.3048333639282402	-0.06465488537389413	-0.3046408561722913	0.6218706664092416	0.6218706664092315	-0.1712316246851266	0.1745270368124523	0.1254246811769388	-0.02492279462738236	0.4514602427626437	0.137928254742654	0.3591144975002568	-1.785574199580468	0.04196120905348245	-0.6145297701083041	0.6213782278515504	-1.736558427859662	-1.736558427859672	0.006632057336504345	-3.279455628479186e-05	-0.5070593528523352	-0.0392583369082645	-0.1743434628311774	0.02833907292603524	-0.02174140701101834	-0.2001164424326776	0.05943350782795773	0.04234316196069743	0.1738098016310837	-18.81000197631292	-19.23303398292529	7.389180084687856	2.838049210522024	-602.0020572361988	-61.11025702974926	-32.02034889298552	0.2835259156917797	0.3148796818680533	-0.4146438754576491	-0.6518701523902387	0.5139442089506632	-0.213909569008397	1.166130855240221	-0.6140492325465224	-0.6140492325463739	-0.0902545377422483	0.01535255150528531	-0.1995436233886009	0.4932650248359233	9.2592524067416e-08	1.438884117526098e-06	-5.458708529646864e-07	1.161209371576606e-07	1.793196194679855e-07	6.87991060022053e-07	1.9242441674352e-07
1.54	-0.320315830381966	-0.001411318171683974	0.8122852402926654	0.9724929667721265	-0.304387566070755	-0.07080945985587932	-0.2983695881653263	0.6044770162422383	0.6044770162422274	-0.1711692567892275	0.1745266692140752	0.1203450813613882	-0.02529014525777246	0.4540747470423109	0.1410061374638488	0.3547634006995015	-1.79123742643598	0.04720628756495993	-0.6162983359042336	0.6327768432318503	-1.741916774646972	-1.741916774646981	0.00583484258729064	-4.110657621411263e-05	-0.5087799045390218	-0.0342024968960203	-0.1681551584793721	0.02700361836953877	-0.02169130257683867	-0.1989777629996069	0.06266432479935993	0.04152331223847803	0.1687492860149568	-17.65330614115163	-19.15890346279675	7.468057171803038	2.493247795367586	-599.0848035594088	-61.46350731257854	-32.91237353535576	0.2358368186086502	0.3001527611965853	-0.455618621565847	-0.4737345567700056	0.5434083876774047	-0.1291935740721763	1.116881996497381	-0.4557770914764528	-0.4557770914764541	-0.05705125665586479	-0.03334812479440177	-0.141335978524622	0.5277749958350912	8.500337123416757e-08	1.506731526669487e-06	-5.332648507100238e-07	1.267787897134161e-07	1.810695502673023e-07	7.131670723021986e-07	1.948841311363585e-07
1.55	-0.3157635553706228	1.355362671523295e-05	0.8158094704350953	0.9545588297827788	-0.3038891690090372	-0.07697917385186015	-0.2919873869818154	0.5870374804597961	0.5870374804597864	-0.1711150377808216	0.174526328610378	0.1152507196353092	-0.02560675740863149	0.4563170225374977	0.1439423856442431	0.3500195482223944	-1.795323285239549	0.05247394806997471	-0.6175510226919206	0.6435554494222874	-1.745729568880172	-1.745729568880179	0.004998830236622084	-3.02418925558102e-05	-0.5100096656954031	-0.02911747252687866	-0.1619227510368745	0.02548714845931295	-0.02168200016883193	-0.1979030874913207	0.06600082954217677	0.04063143921232245	0.1636454727995235	-16.46990113411297	-19.05770760076704	7.542090741644491	2.147298555824057	-596.2504493605347	-61.79735631596448	-33.77232077446058	0.2089476074504332	0.2865135649605088	-0.4931944157252869	-0.3359969457143447	0.5184731522710997	-0.1090836233669972	1.042158323107027	-0.3049479664880503	-0.3049479664876668	-0.09817897299570563	0.01795208909881785	-0.1013574357598954	0.4990457343205133	7.638882303745258e-08	1.558920850821762e-06	-5.210052575927268e-07	1.359347803853157e-07	1.806380716996144e-07	7.311112255907126e-07	1.959919663924949e-07
